<svg width="24" height="24" viewBox="0 0 24 24" fill="none" xmlns="http://www.w3.org/2000/svg">
<path fill-rule="evenodd" clip-rule="evenodd" d="M1.25 4.66001C1.25 3.03446 2.59168 1.78621 4.22166 1.92255C6.44026 2.10243 9.73026 3.19902 11.6113 4.37013L11.865 4.52238C11.8676 4.52358 11.8782 4.52843 11.8985 4.5335C11.9257 4.54029 11.9609 4.54501 12 4.54501C12.0391 4.54501 12.0743 4.54029 12.1015 4.5335C12.1208 4.5287 12.1313 4.52409 12.1345 4.5226L12.3005 4.41516C14.1818 3.23144 17.4869 2.12296 19.7059 1.93275C19.7273 1.93092 19.7486 1.93001 19.77 1.93001H19.8008C21.4092 1.81327 22.75 3.03821 22.75 4.67001V16.74C22.75 18.0724 21.6941 19.2966 20.353 19.4642L20.3503 19.4645L20.0246 19.504C17.9391 19.7823 14.6756 20.8603 12.8374 21.8739C12.5663 22.028 12.2587 22.0825 11.9938 22.0825C11.7305 22.0825 11.4301 22.0288 11.1626 21.8848L11.1346 21.8708C11.1264 21.8667 11.1182 21.8624 11.1101 21.858C9.27067 20.8521 6.00894 19.7811 3.93065 19.5034L3.92752 19.503L3.64189 19.4636C2.30319 19.2935 1.25 18.0707 1.25 16.74V4.66001ZM4.0972 3.41737C3.34769 3.35439 2.75 3.90593 2.75 4.66001V16.74C2.75 17.3276 3.25414 17.9034 3.83303 17.9758L3.84249 17.977L4.12935 18.0166C4.12989 18.0167 4.13042 18.0168 4.13096 18.0168C6.38806 18.3188 9.81571 19.4436 11.8175 20.5352L11.8454 20.5492C11.8547 20.5538 11.8639 20.5587 11.8731 20.5637C11.8731 20.5637 11.8827 20.5683 11.9039 20.5731C11.9284 20.5787 11.9596 20.5825 11.9938 20.5825C12.028 20.5825 12.0576 20.5787 12.0793 20.5737C12.0906 20.5711 12.0971 20.5687 12.0997 20.5678L12.1074 20.5633C14.1088 19.4584 17.5582 18.3189 19.8311 18.0165L19.8397 18.0154L20.167 17.9758C20.1674 17.9757 20.1677 17.9757 20.1681 17.9756C20.7465 17.9027 21.25 17.3272 21.25 16.74V4.67001C21.25 3.91317 20.6495 3.36378 19.8928 3.42737C19.8719 3.42913 19.851 3.43001 19.83 3.43001H19.8028C17.8225 3.60773 14.7741 4.63245 13.1033 5.68233L12.9256 5.79735C12.6339 5.97839 12.2953 6.04501 12 6.04501C11.7066 6.04501 11.3705 5.97914 11.0801 5.80074L10.8231 5.6465C9.14349 4.59911 6.07868 3.57778 4.09948 3.41756L4.0972 3.41737Z" fill="#8E92BC"/>
<path fill-rule="evenodd" clip-rule="evenodd" d="M12 4.73999C12.4142 4.73999 12.75 5.07578 12.75 5.48999V20.49C12.75 20.9042 12.4142 21.24 12 21.24C11.5858 21.24 11.25 20.9042 11.25 20.49V5.48999C11.25 5.07578 11.5858 4.73999 12 4.73999Z" fill="#8E92BC"/>
<path fill-rule="evenodd" clip-rule="evenodd" d="M4.75 8.48999C4.75 8.07578 5.08579 7.73999 5.5 7.73999H7.75C8.16421 7.73999 8.5 8.07578 8.5 8.48999C8.5 8.9042 8.16421 9.23999 7.75 9.23999H5.5C5.08579 9.23999 4.75 8.9042 4.75 8.48999Z" fill="#8E92BC"/>
<path fill-rule="evenodd" clip-rule="evenodd" d="M4.75 11.49C4.75 11.0758 5.08579 10.74 5.5 10.74H8.5C8.91421 10.74 9.25 11.0758 9.25 11.49C9.25 11.9042 8.91421 12.24 8.5 12.24H5.5C5.08579 12.24 4.75 11.9042 4.75 11.49Z" fill="#8E92BC"/>
</svg>
