<svg width="24" height="24" viewBox="0 0 24 24" fill="none" xmlns="http://www.w3.org/2000/svg">
<path fill-rule="evenodd" clip-rule="evenodd" d="M2.37361 6.81723C3.25902 5.76457 4.77703 5.25 7.00007 5.25H17.0001C19.2231 5.25 20.7411 5.76457 21.6266 6.81723C22.5034 7.85966 22.5868 9.22916 22.4462 10.5061L21.6959 18.5099C21.5857 19.538 21.3276 20.6651 20.4097 21.5037C19.4986 22.3361 18.087 22.75 16.0001 22.75H8.00007C5.91322 22.75 4.5016 22.3361 3.59046 21.5037C2.67252 20.6651 2.41449 19.538 2.30434 18.5099L2.30328 18.5L1.55392 10.5061C1.41339 9.22917 1.49679 7.85967 2.37361 6.81723ZM3.52153 7.78277C3.0498 8.3436 2.91702 9.18629 3.04552 10.3475L3.0469 10.36L3.79632 18.3549C3.89637 19.2843 4.10348 19.9407 4.60218 20.3963C5.10854 20.8589 6.06692 21.25 8.00007 21.25H16.0001C17.9332 21.25 18.8916 20.8589 19.398 20.3963C19.8967 19.9407 20.1038 19.2843 20.2038 18.3549L20.9545 10.3475C21.083 9.18628 20.9504 8.3436 20.4786 7.78277C20.014 7.23043 19.0471 6.75 17.0001 6.75H7.00007C4.95311 6.75 3.98612 7.23043 3.52153 7.78277Z" fill="#292D32"/>
<path fill-rule="evenodd" clip-rule="evenodd" d="M8.79369 4.05038C8.75121 4.37577 8.75 4.74554 8.75 5.2V6C8.75 6.41421 8.41422 6.75 8 6.75C7.58579 6.75 7.25 6.41421 7.25 6L7.25 5.17401C7.24998 4.75048 7.24995 4.28789 7.30631 3.85619C7.36471 3.40889 7.48985 2.93401 7.78302 2.50983C8.39976 1.61749 9.52951 1.25 11.2 1.25H12.8C14.4705 1.25 15.6002 1.61749 16.217 2.50983C16.5102 2.93401 16.6353 3.40889 16.6937 3.85619C16.7501 4.28789 16.75 4.75049 16.75 5.17402L16.75 6C16.75 6.41421 16.4142 6.75 16 6.75C15.5858 6.75 15.25 6.41421 15.25 6V5.2C15.25 4.74554 15.2488 4.37577 15.2063 4.05038C15.1647 3.73174 15.0899 3.51724 14.983 3.36267C14.7998 3.09751 14.3295 2.75 12.8 2.75H11.2C9.67049 2.75 9.20025 3.09751 9.01698 3.36267C8.91015 3.51724 8.83529 3.73174 8.79369 4.05038Z" fill="#292D32"/>
<path fill-rule="evenodd" clip-rule="evenodd" d="M10.7508 12.7508C10.75 12.8222 10.75 12.9036 10.75 13V14.03C10.75 14.3115 10.7525 14.5186 10.7769 14.6943C10.8004 14.8632 10.8377 14.9454 10.8694 14.9901C10.9047 15.0399 11.0806 15.25 12 15.25C12.9236 15.25 13.0974 15.0378 13.1319 14.9885C13.1638 14.9431 13.201 14.8596 13.2241 14.6887C13.2482 14.511 13.25 14.3029 13.25 14.02V13C13.25 12.9036 13.25 12.8222 13.2492 12.7508C13.1778 12.75 13.0965 12.75 13 12.75H11C10.9036 12.75 10.8222 12.75 10.7508 12.7508ZM10.9672 11.25C10.9781 11.25 10.9891 11.25 11 11.25H13C13.0109 11.25 13.0219 11.25 13.0329 11.25C13.254 11.25 13.4781 11.2499 13.661 11.2702C13.8473 11.2909 14.157 11.3463 14.4053 11.5947C14.6537 11.843 14.7091 12.1527 14.7298 12.3391C14.7501 12.5219 14.7501 12.746 14.75 12.9672C14.75 12.9781 14.75 12.9891 14.75 13V14.0312C14.75 14.291 14.75 14.5983 14.7106 14.8898C14.6696 15.1923 14.58 15.5357 14.3606 15.849C13.8926 16.5172 13.0664 16.75 12 16.75C10.9394 16.75 10.1153 16.5202 9.64561 15.8575C9.42476 15.5458 9.33334 15.2037 9.29122 14.901C9.25005 14.6052 9.25 14.2935 9.25 14.03V13C9.25 12.9891 9.25 12.9781 9.25 12.9672C9.24995 12.746 9.2499 12.5219 9.27021 12.3391C9.29093 12.1527 9.3463 11.843 9.59467 11.5947C9.84304 11.3463 10.1527 11.2909 10.3391 11.2702C10.5219 11.2499 10.746 11.25 10.9672 11.25Z" fill="#292D32"/>
<path fill-rule="evenodd" clip-rule="evenodd" d="M22.2566 10.5589C22.5002 10.8939 22.4261 11.3629 22.0911 11.6065C19.675 13.3637 16.9145 14.4089 14.0937 14.7641C13.6827 14.8159 13.3076 14.5247 13.2559 14.1137C13.2041 13.7027 13.4953 13.3276 13.9063 13.2759C16.4855 12.9511 19.005 11.9962 21.2089 10.3934C21.5439 10.1498 22.0129 10.2239 22.2566 10.5589Z" fill="#292D32"/>
<path fill-rule="evenodd" clip-rule="evenodd" d="M2.00121 10.8464C2.23516 10.5046 2.70192 10.4172 3.04373 10.6511C5.19263 12.1219 7.61587 13.0084 10.0836 13.2847C10.4952 13.3308 10.7915 13.7018 10.7454 14.1135C10.6994 14.5251 10.3283 14.8215 9.91664 14.7754C7.20437 14.4717 4.54761 13.4981 2.19651 11.8889C1.85469 11.655 1.76725 11.1882 2.00121 10.8464Z" fill="#292D32"/>
</svg>
