<svg width="24" height="24" viewBox="0 0 24 24" fill="none" xmlns="http://www.w3.org/2000/svg">
<path fill-rule="evenodd" clip-rule="evenodd" d="M11.075 4.25738C10.2846 4.89874 9.79249 5.9363 9.64714 7.62434C9.6116 8.03702 9.24824 8.34276 8.83556 8.30722C8.42287 8.27169 8.11713 7.90833 8.15267 7.49564C8.31731 5.58368 8.90525 4.08624 10.1298 3.0926C11.3337 2.11574 13.0162 1.73999 15.1099 1.73999H15.2399C17.5491 1.73999 19.3608 2.19778 20.5765 3.41341C21.7921 4.62904 22.2499 6.44081 22.2499 8.74999V15.27C22.2499 17.5792 21.7921 19.3909 20.5765 20.6066C19.3608 21.8222 17.5491 22.28 15.2399 22.28H15.1099C13.0314 22.28 11.3591 21.9093 10.1576 20.9482C8.93452 19.9697 8.33881 18.4941 8.16314 16.6096C8.12469 16.1972 8.42786 15.8317 8.84029 15.7932C9.25271 15.7548 9.61822 16.058 9.65666 16.4704C9.81099 18.1259 10.3053 19.1453 11.0947 19.7768C11.9057 20.4257 13.1684 20.78 15.1099 20.78H15.2399C17.4007 20.78 18.719 20.3428 19.5158 19.5459C20.3127 18.7491 20.7499 17.4308 20.7499 15.27V8.74999C20.7499 6.58917 20.3127 5.27094 19.5158 4.47407C18.719 3.6772 17.4007 3.23999 15.2399 3.23999H15.1099C13.1536 3.23999 11.8861 3.59924 11.075 4.25738Z" fill="#292D32"/>
<path fill-rule="evenodd" clip-rule="evenodd" d="M2.87012 12C2.87012 11.5858 3.2059 11.25 3.62012 11.25H15.0001C15.4143 11.25 15.7501 11.5858 15.7501 12C15.7501 12.4142 15.4143 12.75 15.0001 12.75H3.62012C3.2059 12.75 2.87012 12.4142 2.87012 12Z" fill="#292D32"/>
<path fill-rule="evenodd" clip-rule="evenodd" d="M6.38033 8.1197C6.67322 8.41259 6.67322 8.88746 6.38033 9.18036L3.56066 12L6.38033 14.8197C6.67322 15.1126 6.67322 15.5874 6.38033 15.8803C6.08744 16.1732 5.61256 16.1732 5.31967 15.8803L1.96967 12.5303C1.82902 12.3897 1.75 12.1989 1.75 12C1.75 11.8011 1.82902 11.6103 1.96967 11.4697L5.31967 8.11969C5.61257 7.8268 6.08744 7.8268 6.38033 8.1197Z" fill="#292D32"/>
</svg>
