<svg width="24" height="24" viewBox="0 0 24 24" fill="none" xmlns="http://www.w3.org/2000/svg">
<path fill-rule="evenodd" clip-rule="evenodd" d="M10.795 3.06953C10.795 3.06954 10.795 3.06952 10.795 3.06953L4.85773 6.49795C4.11582 6.935 3.66003 7.72968 3.66003 8.58003V15.42C3.66003 16.2836 4.1184 17.0752 4.85502 17.5005L10.7921 20.9288C10.7926 20.9291 10.793 20.9293 10.7935 20.9296C11.5438 21.3577 12.4586 21.3556 13.195 20.9305C13.195 20.9305 13.1949 20.9305 13.195 20.9305L19.13 17.5034C19.1308 17.5029 19.1315 17.5025 19.1323 17.5021C19.8742 17.065 20.33 16.2704 20.33 15.42V8.58003C20.33 7.72101 19.8754 6.93566 19.1323 6.49796C19.1316 6.49751 19.1308 6.49706 19.13 6.49661L13.1979 3.07118C13.1975 3.07094 13.197 3.07069 13.1966 3.07044C12.4462 2.64227 11.5313 2.64445 10.795 3.06953ZM10.045 1.77047C11.2482 1.07583 12.7327 1.07774 13.9421 1.76882L13.9451 1.7705L19.89 5.20335C21.0856 5.90592 21.83 7.17993 21.83 8.58003V15.42C21.83 16.8088 21.0867 18.0934 19.89 18.7966L19.8851 18.7995L13.945 22.2295C12.7418 22.9241 11.2573 22.9223 10.0479 22.2312L10.045 22.2295L4.10505 18.7995C2.90166 18.1048 2.16003 16.8164 2.16003 15.42V8.58003C2.16003 7.19125 2.90332 5.90661 4.10006 5.20337L4.10498 5.20048L10.045 1.77047Z" fill="#8E92BC"/>
<path fill-rule="evenodd" clip-rule="evenodd" d="M8.92004 8.66998C8.92004 6.96893 10.299 5.59003 12 5.59003C13.7011 5.59003 15.08 6.96894 15.08 8.66998C15.08 10.371 13.7011 11.75 12 11.75C10.299 11.75 8.92004 10.371 8.92004 8.66998ZM12 7.09003C11.1274 7.09003 10.42 7.79738 10.42 8.66998C10.42 9.54261 11.1274 10.25 12 10.25C12.8727 10.25 13.58 9.54262 13.58 8.66998C13.58 7.79737 12.8727 7.09003 12 7.09003Z" fill="#8E92BC"/>
<path fill-rule="evenodd" clip-rule="evenodd" d="M7.25 16.66C7.25 14.3098 9.5263 12.65 12 12.65C14.4737 12.65 16.75 14.3098 16.75 16.66C16.75 17.0742 16.4142 17.41 16 17.41C15.5858 17.41 15.25 17.0742 15.25 16.66C15.25 15.4102 13.9463 14.15 12 14.15C10.0537 14.15 8.75 15.4102 8.75 16.66C8.75 17.0742 8.41421 17.41 8 17.41C7.58579 17.41 7.25 17.0742 7.25 16.66Z" fill="#8E92BC"/>
</svg>
