<?xml version="1.0" encoding="utf-8"?><svg xmlns="http://www.w3.org/2000/svg" xmlns:xlink="http://www.w3.org/1999/xlink"><symbol viewBox="0 0 24 24" id="book" xmlns="http://www.w3.org/2000/svg"><path fill-rule="evenodd" clip-rule="evenodd" d="M1.25 4.66a2.717 2.717 0 012.972-2.737c2.218.18 5.508 1.276 7.39 2.447l.253.152a.429.429 0 00.27 0l.165-.107c1.882-1.184 5.187-2.292 7.406-2.482a.75.75 0 01.064-.003h.03c1.61-.117 2.95 1.108 2.95 2.74v12.07c0 1.332-1.056 2.557-2.397 2.724h-.003l-.325.04c-2.086.278-5.35 1.356-7.188 2.37a1.725 1.725 0 01-.843.209c-.264 0-.564-.054-.831-.198l-.028-.014a.816.816 0 01-.025-.013c-1.84-1.006-5.101-2.077-7.18-2.355h-.002l-.286-.04c-1.339-.17-2.392-1.392-2.392-2.723V4.66zm2.847-1.243c-.75-.063-1.347.489-1.347 1.243v12.08c0 .588.504 1.163 1.083 1.236l.01.001.286.04h.002c2.257.302 5.685 1.427 7.687 2.518l.027.014.028.015.03.01a.413.413 0 00.176 0l.02-.006.008-.005c2.002-1.105 5.451-2.244 7.724-2.546l.009-.002.327-.04h.001c.579-.072 1.082-.648 1.082-1.235V4.67c0-.757-.6-1.306-1.357-1.243a.747.747 0 01-.063.003h-.027c-1.98.178-5.029 1.202-6.7 2.252l-.177.115c-.292.181-.63.248-.926.248-.293 0-.63-.066-.92-.244l-.257-.155C9.143 4.6 6.08 3.578 4.1 3.418h-.002z"/><path fill-rule="evenodd" clip-rule="evenodd" d="M12 4.74a.75.75 0 01.75.75v15a.75.75 0 01-1.5 0v-15a.75.75 0 01.75-.75zM4.75 8.49a.75.75 0 01.75-.75h2.25a.75.75 0 010 1.5H5.5a.75.75 0 01-.75-.75zM4.75 11.49a.75.75 0 01.75-.75h3a.75.75 0 010 1.5h-3a.75.75 0 01-.75-.75z"/></symbol><symbol viewBox="0 0 24 24" id="briefcase" xmlns="http://www.w3.org/2000/svg"><path fill-rule="evenodd" clip-rule="evenodd" d="M2.374 6.817C3.259 5.765 4.777 5.25 7 5.25h10c2.223 0 3.741.515 4.627 1.567.876 1.043.96 2.412.82 3.69l-.751 8.003c-.11 1.028-.368 2.155-1.286 2.994-.911.832-2.323 1.246-4.41 1.246H8c-2.087 0-3.498-.414-4.41-1.246-.917-.839-1.176-1.966-1.286-2.994v-.01l-.75-7.994c-.14-1.277-.057-2.646.82-3.689zm1.148.966c-.472.56-.605 1.403-.476 2.564v.013l.75 7.995c.1.93.307 1.586.806 2.041.507.463 1.465.854 3.398.854h8c1.933 0 2.892-.391 3.398-.854.499-.455.706-1.112.806-2.041l.75-8.008c.129-1.16-.004-2.003-.475-2.564C20.014 7.23 19.047 6.75 17 6.75H7c-2.047 0-3.014.48-3.478 1.033z"/><path fill-rule="evenodd" clip-rule="evenodd" d="M8.794 4.05c-.043.326-.044.696-.044 1.15V6a.75.75 0 11-1.5 0v-.826c0-.424 0-.886.056-1.318.059-.447.184-.922.477-1.346C8.4 1.617 9.53 1.25 11.2 1.25h1.6c1.67 0 2.8.367 3.417 1.26.293.424.418.899.477 1.346.056.432.056.894.056 1.318V6a.75.75 0 01-1.5 0v-.8c0-.454-.001-.824-.044-1.15-.041-.318-.116-.533-.223-.687-.183-.265-.654-.613-2.183-.613h-1.6c-1.53 0-2 .348-2.183.613-.107.154-.182.369-.223.687zM10.75 12.75v1.28c0 .282.002.489.027.664.023.17.06.251.092.296.036.05.212.26 1.131.26.924 0 1.097-.212 1.132-.261.032-.046.069-.13.092-.3.024-.178.026-.386.026-.669V13v-.25h-2.5zm.217-1.5h2.066c.221 0 .445 0 .628.02.186.02.496.076.744.325.249.248.304.558.325.744.02.183.02.407.02.628V14.031c0 .26 0 .567-.04.859-.04.302-.13.646-.35.959-.467.668-1.294.901-2.36.901-1.06 0-1.885-.23-2.354-.893a2.134 2.134 0 01-.355-.956 6.403 6.403 0 01-.041-.871V13v-.033c0-.221 0-.445.02-.628.02-.186.076-.496.325-.744.248-.249.558-.304.744-.325.183-.02.407-.02.628-.02z"/><path fill-rule="evenodd" clip-rule="evenodd" d="M22.257 10.559a.75.75 0 01-.166 1.048 17.234 17.234 0 01-7.997 3.157.75.75 0 11-.188-1.488 15.735 15.735 0 007.303-2.883.75.75 0 011.048.166zM2.001 10.846a.75.75 0 011.043-.195 15.533 15.533 0 007.04 2.634.75.75 0 11-.167 1.49 17.033 17.033 0 01-7.72-2.886A.75.75 0 012 10.846z"/></symbol><symbol viewBox="0 0 24 24" id="category" xmlns="http://www.w3.org/2000/svg"><path fill-rule="evenodd" clip-rule="evenodd" d="M14.22 2.22c.69-.69 1.664-.97 2.78-.97h2c1.116 0 2.09.28 2.78.97s.97 1.664.97 2.78v2c0 1.116-.28 2.09-.97 2.78s-1.664.97-2.78.97h-2c-1.116 0-2.09-.28-2.78-.97s-.97-1.664-.97-2.78V5c0-1.116.28-2.09.97-2.78zm1.06 1.06c-.31.31-.53.836-.53 1.72v2c0 .884.22 1.41.53 1.72.31.31.836.53 1.72.53h2c.884 0 1.41-.22 1.72-.53.31-.31.53-.836.53-1.72V5c0-.884-.22-1.41-.53-1.72-.31-.31-.836-.53-1.72-.53h-2c-.884 0-1.41.22-1.72.53zM2.22 14.22c.69-.69 1.664-.97 2.78-.97h2c1.116 0 2.09.28 2.78.97s.97 1.664.97 2.78v2c0 1.116-.28 2.09-.97 2.78s-1.664.97-2.78.97H5c-1.116 0-2.09-.28-2.78-.97s-.97-1.664-.97-2.78v-2c0-1.116.28-2.09.97-2.78zm1.06 1.06c-.31.31-.53.836-.53 1.72v2c0 .884.22 1.41.53 1.72.31.31.836.53 1.72.53h2c.884 0 1.41-.22 1.72-.53.31-.31.53-.836.53-1.72v-2c0-.884-.22-1.41-.53-1.72-.31-.31-.836-.53-1.72-.53H5c-.884 0-1.41.22-1.72.53zM1.25 6a4.75 4.75 0 119.5 0 4.75 4.75 0 01-9.5 0zM6 2.75a3.25 3.25 0 100 6.5 3.25 3.25 0 000-6.5zM13.25 18a4.75 4.75 0 119.5 0 4.75 4.75 0 01-9.5 0zM18 14.75a3.25 3.25 0 100 6.5 3.25 3.25 0 000-6.5z"/></symbol><symbol viewBox="0 0 24 24" id="clock" xmlns="http://www.w3.org/2000/svg"><path fill-rule="evenodd" clip-rule="evenodd" d="M12 3.5A8.5 8.5 0 003.5 12a8.5 8.5 0 008.5 8.5 8.5 8.5 0 008.5-8.5A8.5 8.5 0 0012 3.5zM2 12C2 6.477 6.477 2 12 2s10 4.477 10 10c0 5.524-4.477 10-10 10S2 17.524 2 12z"/><path fill-rule="evenodd" clip-rule="evenodd" d="M11.661 7.097a.75.75 0 01.75.75v4.421l3.405 2.03a.75.75 0 11-.769 1.289l-3.77-2.249a.75.75 0 01-.366-.644V7.847a.75.75 0 01.75-.75z"/></symbol><symbol viewBox="0 0 34 34" id="logo" xmlns="http://www.w3.org/2000/svg"><g clip-path="url(#eclip0_1_2)"><path d="M23.983.333H10.017C3.95.333.333 3.95.333 10.017v13.95c0 6.083 3.617 9.7 9.684 9.7h13.95c6.066 0 9.683-3.617 9.683-9.684V10.017c.017-6.067-3.6-9.684-9.667-9.684zM16.167 25.75c0 .6-.6 1-1.15.767-2.017-.867-4.65-1.667-6.484-1.9l-.316-.034c-1.017-.133-1.85-1.083-1.85-2.116V9.633C6.367 8.35 7.4 7.4 8.667 7.5c2.083.167 5.166 1.167 7.1 2.267.266.15.4.433.4.716V25.75zm11.466-3.3c0 1.033-.833 1.983-1.85 2.117l-.35.033c-1.816.25-4.433 1.033-6.45 1.883a.825.825 0 01-1.15-.766v-15.25c0-.3.15-.584.417-.734 1.933-1.083 4.95-2.05 7-2.233h.067a2.312 2.312 0 012.316 2.317V22.45z"/></g><defs><clipPath id="eclip0_1_2"><path d="M0 0h34v34H0z"/></clipPath></defs></symbol><symbol viewBox="0 0 24 24" id="logout" xmlns="http://www.w3.org/2000/svg"><path fill-rule="evenodd" clip-rule="evenodd" d="M11.075 4.257c-.79.642-1.283 1.68-1.428 3.367a.75.75 0 01-1.494-.128c.164-1.912.752-3.41 1.977-4.403 1.204-.977 2.886-1.353 4.98-1.353h.13c2.31 0 4.12.458 5.336 1.673C21.793 4.63 22.25 6.441 22.25 8.75v6.52c0 2.31-.458 4.12-1.674 5.337-1.215 1.215-3.027 1.673-5.336 1.673h-.13c-2.079 0-3.75-.37-4.952-1.332-1.223-.978-1.82-2.454-1.995-4.338a.75.75 0 011.494-.14c.154 1.656.648 2.675 1.438 3.307.81.649 2.073 1.003 4.015 1.003h.13c2.16 0 3.479-.437 4.276-1.234.797-.797 1.234-2.115 1.234-4.276V8.75c0-2.16-.437-3.48-1.234-4.276-.797-.797-2.115-1.234-4.276-1.234h-.13c-1.956 0-3.224.36-4.035 1.017z"/><path fill-rule="evenodd" clip-rule="evenodd" d="M2.87 12a.75.75 0 01.75-.75H15a.75.75 0 010 1.5H3.62a.75.75 0 01-.75-.75z"/><path fill-rule="evenodd" clip-rule="evenodd" d="M6.38 8.12a.75.75 0 010 1.06L3.56 12l2.82 2.82a.75.75 0 11-1.06 1.06l-3.35-3.35a.75.75 0 010-1.06l3.35-3.35a.75.75 0 011.06 0z"/></symbol><symbol viewBox="0 0 24 24" id="menu" xmlns="http://www.w3.org/2000/svg"><path fill-rule="evenodd" clip-rule="evenodd" d="M2.25 7A.75.75 0 013 6.25h18a.75.75 0 010 1.5H3A.75.75 0 012.25 7zM2.25 12a.75.75 0 01.75-.75h18a.75.75 0 010 1.5H3a.75.75 0 01-.75-.75zM2.25 17a.75.75 0 01.75-.75h18a.75.75 0 010 1.5H3a.75.75 0 01-.75-.75z"/></symbol><symbol viewBox="0 0 24 24" id="message" xmlns="http://www.w3.org/2000/svg"><path fill-rule="evenodd" clip-rule="evenodd" d="M4.03 4.03C3.22 4.84 2.75 6.116 2.75 8v5c0 2.435.494 3.654 1.244 4.31.775.679 2.02.94 4.006.94h.5c.283 0 .558.088.774.195.214.107.456.273.629.508L11.4 20.95c.21.279.434.36.6.36.166 0 .39-.081.6-.36l1.5-2 .003-.004c.33-.434.85-.696 1.397-.696h.5c1.884 0 3.16-.47 3.97-1.28s1.28-2.086 1.28-3.97V8c0-1.884-.47-3.16-1.28-3.97S17.884 2.75 16 2.75H8c-1.884 0-3.16.47-3.97 1.28zM2.97 2.97C4.16 1.78 5.884 1.25 8 1.25h8c2.116 0 3.84.53 5.03 1.72 1.19 1.19 1.72 2.914 1.72 5.03v5c0 2.116-.53 3.84-1.72 5.03-1.19 1.19-2.914 1.72-5.03 1.72h-.5a.264.264 0 00-.202.102v.002L13.8 21.85c-.45.601-1.096.96-1.8.96s-1.35-.359-1.8-.96l-1.501-2.002a.454.454 0 00-.204-.098H8c-2.013 0-3.769-.239-4.994-1.31C1.756 17.345 1.25 15.564 1.25 13V8c0-2.116.53-3.84 1.72-5.03z"/><path fill-rule="evenodd" clip-rule="evenodd" d="M14.996 11a1 1 0 011-1h.01a1 1 0 110 2h-.01a1 1 0 01-1-1zM10.995 11a1 1 0 011-1h.01a1 1 0 110 2h-.01a1 1 0 01-1-1zM6.995 11a1 1 0 011-1h.008a1 1 0 110 2h-.008a1 1 0 01-1-1z"/></symbol><symbol viewBox="0 0 24 24" id="news" xmlns="http://www.w3.org/2000/svg"><path fill-rule="evenodd" clip-rule="evenodd" d="M3.095 3.095C4.429 1.76 6.426 1.25 9 1.25h6c2.574 0 4.57.51 5.905 1.845C22.24 4.429 22.75 6.426 22.75 9v6c0 2.574-.51 4.57-1.845 5.905C19.571 22.24 17.574 22.75 15 22.75H9c-2.574 0-4.57-.51-5.905-1.845C1.76 19.571 1.25 17.574 1.25 15V9c0-2.574.51-4.57 1.845-5.905zm1.06 1.06C3.24 5.071 2.75 6.574 2.75 9v6c0 2.426.49 3.93 1.405 4.845.916.915 2.419 1.405 4.845 1.405h6c2.426 0 3.93-.49 4.845-1.405.915-.916 1.405-2.419 1.405-4.845V9c0-2.426-.49-3.93-1.405-4.845C18.929 3.24 17.426 2.75 15 2.75H9c-2.426 0-3.93.49-4.845 1.405z"/><path fill-rule="evenodd" clip-rule="evenodd" d="M14.9 17.08a.75.75 0 01.75-.75h1.85a.75.75 0 010 1.5h-1.85a.75.75 0 01-.75-.75zM5.75 17.08a.75.75 0 01.75-.75h6.47a.75.75 0 010 1.5H6.5a.75.75 0 01-.75-.75zM11.22 13.32a.75.75 0 01.75-.75h5.53a.75.75 0 010 1.5h-5.53a.75.75 0 01-.75-.75zM5.75 13.32a.75.75 0 01.75-.75h2.77a.75.75 0 010 1.5H6.5a.75.75 0 01-.75-.75z"/></symbol><symbol viewBox="0 0 24 24" id="settings" xmlns="http://www.w3.org/2000/svg"><path fill-rule="evenodd" clip-rule="evenodd" d="M8.25 12a3.75 3.75 0 117.5 0 3.75 3.75 0 01-7.5 0zM12 9.75a2.25 2.25 0 100 4.5 2.25 2.25 0 000-4.5z"/><path fill-rule="evenodd" clip-rule="evenodd" d="M9.603 3.77a.919.919 0 00-1.25-.335l-.01.006-1.73.99a1.15 1.15 0 00-.424 1.564l-.649.375.649-.376c.535.923.679 1.935.2 2.764-.477.83-1.424 1.212-2.489 1.212-.633 0-1.15.522-1.15 1.15v1.76c0 .628.517 1.15 1.15 1.15 1.065 0 2.012.383 2.49 1.212.478.83.334 1.84-.2 2.764a1.15 1.15 0 00.422 1.563l1.742.996a.919.919 0 001.25-.335l.107-.186c.535-.923 1.341-1.552 2.298-1.552.957 0 1.761.63 2.291 1.554v.001l.106.183a.919.919 0 001.25.335l.011-.006 1.73-.99a1.147 1.147 0 00.423-1.565c-.534-.923-.677-1.934-.2-2.762.478-.83 1.425-1.212 2.49-1.212.633 0 1.15-.522 1.15-1.15v-1.76c0-.633-.522-1.15-1.15-1.15-1.065 0-2.012-.382-2.49-1.212-.478-.829-.334-1.84.2-2.764a1.15 1.15 0 00-.422-1.563l-1.742-.996a.919.919 0 00-1.25.335l-.107.186c-.535.923-1.341 1.552-2.298 1.552-.957 0-1.76-.63-2.29-1.553l-.002-.002-.106-.183zm-2.01-1.628c1.159-.685 2.63-.265 3.302.865l.004.007.11.19.002.003c.37.645.756.8.99.8.236 0 .625-.156 1-.803l.114-.197c.672-1.13 2.143-1.55 3.303-.865l1.724.987a2.65 2.65 0 01.977 3.616v.001c-.375.647-.316 1.06-.2 1.263.118.203.446.461 1.191.461a2.656 2.656 0 012.65 2.65v1.76a2.656 2.656 0 01-2.65 2.65c-.745 0-1.073.258-1.19.46-.117.204-.176.617.199 1.264l.002.004a2.647 2.647 0 01-.979 3.613l-1.725.987c-1.159.685-2.63.265-3.302-.864l-.004-.008-.11-.19-.002-.003c-.37-.645-.756-.8-.99-.8-.236 0-.625.156-1 .803l-.114.198c-.672 1.129-2.143 1.55-3.302.864l-1.725-.987a2.65 2.65 0 01-.977-3.616v-.001c.375-.647.316-1.06.2-1.263-.118-.204-.446-.461-1.191-.461a2.656 2.656 0 01-2.65-2.65v-1.76A2.656 2.656 0 013.9 8.47c.745 0 1.073-.258 1.19-.46.117-.204.176-.617-.199-1.264a2.649 2.649 0 01.976-3.617l1.725-.987z"/></symbol><symbol viewBox="0 0 24 24" id="user" xmlns="http://www.w3.org/2000/svg"><path fill-rule="evenodd" clip-rule="evenodd" d="M10.795 3.07L4.858 6.498A2.424 2.424 0 003.66 8.58v6.84a2.4 2.4 0 001.195 2.08l5.937 3.429h.002c.75.429 1.665.427 2.401.002l5.935-3.428h.002a2.424 2.424 0 001.198-2.083V8.58a2.412 2.412 0 00-1.2-2.083L13.198 3.07h-.001a2.413 2.413 0 00-2.402-.001zm-.75-1.3a3.913 3.913 0 013.897-.001l.003.002 5.945 3.432a3.912 3.912 0 011.94 3.377v6.84a3.924 3.924 0 01-1.94 3.377l-.005.002-5.94 3.43a3.913 3.913 0 01-3.897.002l-.003-.002-5.94-3.43A3.9 3.9 0 012.16 15.42V8.58c0-1.389.743-2.673 1.94-3.377l.005-.003 5.94-3.43z"/><path fill-rule="evenodd" clip-rule="evenodd" d="M8.92 8.67a3.08 3.08 0 116.16 0 3.08 3.08 0 01-6.16 0zM12 7.09a1.58 1.58 0 100 3.16 1.58 1.58 0 000-3.16zM7.25 16.66c0-2.35 2.276-4.01 4.75-4.01s4.75 1.66 4.75 4.01a.75.75 0 01-1.5 0c0-1.25-1.304-2.51-3.25-2.51s-3.25 1.26-3.25 2.51a.75.75 0 01-1.5 0z"/></symbol></svg>